<svg xmlns="http://www.w3.org/2000/svg" version="1.1" xmlns:xlink="http://www.w3.org/1999/xlink" xmlns:svgjs="http://svgjs.dev/svgjs" width="1000" height="1000" viewBox="0 0 1000 1000"><rect width="1000" height="1000" fill="#000000"></rect><g transform="matrix(0.7,0,0,0.7,150.07466666666664,341.0153864705882)"><svg viewBox="0 0 375 170" data-background-color="#444444" preserveAspectRatio="xMidYMid meet" height="453" width="1000" xmlns="http://www.w3.org/2000/svg" xmlns:xlink="http://www.w3.org/1999/xlink"><g id="tight-bounds" transform="matrix(1,0,0,1,-0.03976000000000113,0.23299999999998988)"><svg viewBox="0 0 375.07953 169.53396999999998" height="169.53396999999998" width="375.07953"><g><svg></svg></g><g><svg viewBox="0 0 375.07953 169.53396999999998" height="169.53396999999998" width="375.07953"><g transform="matrix(1,0,0,1,-10.22024,-44.155)"><path d="M10.22 203.045v-158.89h375.08v158.89h-13.083v-5.416h7.667v-148.058h-364.248v148.058h10.01l0 5.416z" fill="#000000" fill-rule="nonzero" stroke="none" stroke-width="1" stroke-linecap="butt" stroke-linejoin="miter" stroke-miterlimit="10" stroke-dasharray="" stroke-dashoffset="0" font-family="none" font-weight="none" font-size="none" text-anchor="none" style="mix-blend-mode: normal" data-fill-palette-color="tertiary"></path><g><path d="M42.576 213.136l-0.678-0.364v-6.933c-0.021-2.533 0.061-7.366 0.245-14.499v0-1.262c0-0.222 0.042-0.354 0.126-0.396v0h10.549c0.1 0 0.306 0.389 0.616 1.168 0.314 0.774 0.693 1.773 1.136 2.995 0.444 1.222 0.758 2.062 0.942 2.518v0l2.148 5.614v-5.946c0-0.511 0.013-1.448 0.038-2.814 0.025-1.365 0.033-2.43 0.025-3.196v0c0-0.289 0.816-0.433 2.449-0.433v0c0.515 0 1.216 0.01 2.104 0.031 0.888 0.021 1.434 0.031 1.638 0.032v0h1.168c0.163 0 0.245 0.031 0.245 0.094v0c0.059 2.838 0.088 6.905 0.088 12.201v0 10.638c-0.071 0.268-0.398 0.402-0.979 0.402v0h-0.396c-0.532 0-1.315 0.01-2.349 0.031-1.03 0.021-1.811 0.031-2.342 0.031v0h-4.509c-0.142-0.05-0.44-0.695-0.891-1.934v0c-0.477-1.34-1.193-3.276-2.148-5.808-0.95-2.537-1.48-3.952-1.589-4.245v0c0 0.603-0.006 1.501-0.019 2.694-0.008 1.197-0.013 2.097-0.012 2.7v0c0 0.448 0.01 1.122 0.031 2.022 0.017 0.9 0.025 1.574 0.025 2.022v0 1.934c0 0.469-0.203 0.703-0.609 0.703v0zM65.327 189.776v-0.063zM210.814 204.489v0c-0.172 1.536-0.574 2.895-1.206 4.076-0.636 1.181-1.451 2.141-2.443 2.882-0.988 0.741-2.114 1.3-3.378 1.677-1.264 0.377-2.642 0.565-4.132 0.565v0c-1.39 0-2.656-0.151-3.799-0.452-1.147-0.301-2.114-0.701-2.901-1.2-0.787-0.502-1.482-1.114-2.085-1.833-0.603-0.72-1.082-1.461-1.438-2.223-0.36-0.762-0.649-1.595-0.867-2.5-0.222-0.904-0.37-1.748-0.446-2.53-0.075-0.783-0.113-1.597-0.113-2.443v0-1.35c0.1-1.495 0.448-2.836 1.043-4.025 0.59-1.189 1.31-2.15 2.16-2.883 0.846-0.733 1.817-1.342 2.914-1.827 1.093-0.486 2.156-0.823 3.19-1.011 1.03-0.188 2.056-0.283 3.077-0.283v0c1.645 0 3.1 0.197 4.364 0.591 1.26 0.394 2.29 0.948 3.09 1.664 0.795 0.716 1.419 1.536 1.871 2.461 0.448 0.925 0.733 1.959 0.854 3.102v0 1.476c0 0.327-1.124 0.49-3.372 0.49v0c-0.532 0-1.271-0.01-2.217-0.031-0.942-0.021-1.562-0.031-1.859-0.032v0c-0.05 0-0.128 0.004-0.232 0.013-0.1 0.013-0.176 0.019-0.226 0.019v0c-0.268 0-0.471-0.111-0.609-0.333-0.138-0.218-0.23-0.486-0.277-0.804-0.046-0.314-0.103-0.63-0.169-0.948-0.067-0.318-0.205-0.586-0.415-0.804-0.209-0.222-0.498-0.333-0.866-0.333-0.364 0-0.684 0.061-0.961 0.182-0.276 0.126-0.496 0.318-0.659 0.578-0.163 0.26-0.299 0.523-0.408 0.791-0.109 0.264-0.186 0.609-0.233 1.036-0.046 0.423-0.075 0.779-0.088 1.068-0.017 0.293-0.029 0.682-0.037 1.168-0.013 0.486-0.023 0.841-0.032 1.067v0c0 0.121-0.01 0.345-0.031 0.672-0.021 0.327-0.031 0.592-0.032 0.798v0c0 2.545 0.674 3.854 2.022 3.925v0c0.368 0 0.67-0.132 0.905-0.396 0.234-0.268 0.396-0.565 0.483-0.892 0.088-0.327 0.188-0.672 0.302-1.036 0.113-0.364 0.234-0.611 0.364-0.741v0h8.339c0.339 0.029 0.523 0.232 0.553 0.609zM331.866 201.18v0-1.683c0.105-1.432 0.417-2.738 0.936-3.918 0.523-1.181 1.185-2.175 1.984-2.983 0.804-0.808 1.733-1.49 2.788-2.047 1.051-0.557 2.152-0.963 3.303-1.219 1.147-0.255 2.334-0.383 3.561-0.383v0c0.674 0 1.377 0.057 2.11 0.17 0.733 0.113 1.507 0.291 2.323 0.534 0.816 0.247 1.601 0.607 2.355 1.08 0.749 0.477 1.369 1.038 1.859 1.683v0c1.013 1.235 1.748 2.529 2.204 3.88 0.452 1.356 0.678 2.861 0.678 4.515v0c0.033 3.458-0.722 6.24-2.267 8.346v0l-0.671 0.917c-0.594 0.816-1.444 1.499-2.55 2.047-1.101 0.548-2.204 0.927-3.309 1.137-1.105 0.209-2.219 0.314-3.341 0.314v0c-1.319 0-2.535-0.134-3.649-0.402-1.114-0.264-2.074-0.622-2.882-1.074-0.808-0.448-1.53-0.994-2.166-1.639-0.632-0.645-1.149-1.325-1.551-2.041-0.406-0.712-0.739-1.488-0.999-2.33-0.26-0.837-0.444-1.654-0.553-2.449-0.109-0.8-0.163-1.618-0.163-2.455zM344.074 195.108v0c-0.419 0-0.795 0.098-1.131 0.295-0.331 0.193-0.601 0.427-0.81 0.703-0.209 0.276-0.391 0.647-0.546 1.111-0.151 0.465-0.262 0.883-0.333 1.256-0.075 0.373-0.132 0.844-0.169 1.413-0.042 0.565-0.065 1.005-0.069 1.319-0.008 0.31-0.013 0.71-0.013 1.199v0c0 0.473 0.019 0.921 0.057 1.344 0.038 0.423 0.115 0.873 0.232 1.35 0.117 0.473 0.27 0.888 0.458 1.244 0.188 0.352 0.448 0.647 0.779 0.885 0.335 0.243 0.716 0.373 1.143 0.39v0c0.452 0 0.852-0.073 1.199-0.22 0.347-0.147 0.638-0.335 0.873-0.565 0.234-0.23 0.433-0.54 0.597-0.93 0.163-0.389 0.289-0.762 0.377-1.118 0.088-0.36 0.155-0.806 0.2-1.337 0.046-0.532 0.073-0.988 0.082-1.369 0.008-0.385 0.013-0.869 0.013-1.451v0c0-0.427-0.013-0.825-0.038-1.193-0.025-0.368-0.067-0.779-0.126-1.231-0.063-0.448-0.165-0.844-0.307-1.186-0.142-0.343-0.316-0.666-0.521-0.968-0.205-0.301-0.473-0.534-0.804-0.697-0.335-0.163-0.716-0.245-1.143-0.244z" fill="#ffffff" fill-rule="nonzero" stroke="none" stroke-width="1" stroke-linecap="butt" stroke-linejoin="miter" stroke-miterlimit="10" stroke-dasharray="" stroke-dashoffset="0" font-family="none" font-weight="none" font-size="none" text-anchor="none" style="mix-blend-mode: normal" data-fill-palette-color="secondary"></path></g></g><g transform="matrix(1,0,0,1,29.33176499999999,54.73733100465476)"><svg viewBox="0 0 316.416 60.059307990690456" height="60.059307990690456" width="316.416"><g><svg viewBox="0 0 316.416 60.059307990690456" height="60.059307990690456" width="316.416"><g><svg viewBox="0 0 316.416 60.059307990690456" height="60.059307990690456" width="316.416"><g><svg viewBox="0 0 316.416 60.059307990690456" height="60.059307990690456" width="316.416"><g><svg viewBox="0 0 316.416 60.059307990690456" height="60.059307990690456" width="316.416"><g><svg viewBox="0 0 316.416 60.059307990690456" height="60.059307990690456" width="316.416"><g transform="matrix(1,0,0,1,0,0)"><svg width="316.416" viewBox="5.3 -36.5 193.33999999999997 36.7" height="60.059307990690456" data-palette-color="#000000"><path d="M18.05-26.3Q22.95-26.3 25.8-23.45 28.65-20.6 28.65-15.25L28.65-15.25 28.65 0 26.15 0 26.15-15.05Q26.15-19.45 23.93-21.75 21.7-24.05 17.7-24.05L17.7-24.05Q13.1-24.05 10.45-21.3 7.8-18.55 7.8-13.9L7.8-13.9 7.8 0 5.3 0 5.3-26.1 7.7-26.1 7.7-20.45Q9.05-23.2 11.73-24.75 14.4-26.3 18.05-26.3L18.05-26.3ZM61.1-13.15L61.05-12.45 38.6-12.45Q38.7-9.4 40.15-7.03 41.6-4.65 44.07-3.35 46.55-2.05 49.65-2.05L49.65-2.05Q52.2-2.05 54.37-2.98 56.55-3.9 58-5.7L58-5.7 59.45-4.05Q57.75-2 55.17-0.9 52.6 0.2 49.6 0.2L49.6 0.2Q45.7 0.2 42.65-1.5 39.6-3.2 37.87-6.2 36.15-9.2 36.15-13.05L36.15-13.05Q36.15-16.85 37.77-19.88 39.4-22.9 42.25-24.6 45.1-26.3 48.65-26.3L48.65-26.3Q52.2-26.3 55.02-24.63 57.85-22.95 59.47-19.95 61.1-16.95 61.1-13.15L61.1-13.15ZM48.65-24.1Q45.9-24.1 43.7-22.88 41.5-21.65 40.17-19.43 38.85-17.2 38.65-14.4L38.65-14.4 58.65-14.4Q58.5-17.2 57.15-19.4 55.8-21.6 53.6-22.85 51.4-24.1 48.65-24.1L48.65-24.1ZM103.34-26.1L105.65-26.1 95.75 0 93.4 0 84.59-22.65 75.75 0 73.45 0 63.55-26.1 65.95-26.1 74.65-2.8 83.55-26.1 85.7-26.1 94.55-2.85 103.34-26.1ZM117.74 0.2Q114.59 0.2 111.74-0.75 108.89-1.7 107.29-3.15L107.29-3.15 108.44-5.15Q110.04-3.8 112.57-2.9 115.09-2 117.84-2L117.84-2Q121.79-2 123.67-3.3 125.54-4.6 125.54-6.9L125.54-6.9Q125.54-8.55 124.52-9.5 123.49-10.45 121.99-10.9 120.49-11.35 117.84-11.85L117.84-11.85Q114.74-12.4 112.84-13.05 110.94-13.7 109.59-15.15 108.24-16.6 108.24-19.15L108.24-19.15Q108.24-22.25 110.82-24.28 113.39-26.3 118.14-26.3L118.14-26.3Q120.64-26.3 123.09-25.6 125.54-24.9 127.09-23.75L127.09-23.75 125.94-21.75Q124.34-22.9 122.29-23.5 120.24-24.1 118.09-24.1L118.09-24.1Q114.44-24.1 112.59-22.75 110.74-21.4 110.74-19.2L110.74-19.2Q110.74-17.45 111.79-16.48 112.84-15.5 114.37-15.03 115.89-14.55 118.64-14L118.64-14Q121.69-13.45 123.57-12.83 125.44-12.2 126.74-10.8 128.04-9.4 128.04-6.95L128.04-6.95Q128.04-3.7 125.34-1.75 122.64 0.2 117.74 0.2L117.74 0.2ZM135.04 0L135.04-26.1 137.54-26.1 137.54 0 135.04 0ZM136.29-32.45Q135.44-32.45 134.84-33.02 134.24-33.6 134.24-34.45L134.24-34.45Q134.24-35.3 134.84-35.9 135.44-36.5 136.29-36.5L136.29-36.5Q137.14-36.5 137.74-35.93 138.34-35.35 138.34-34.5L138.34-34.5Q138.34-33.65 137.74-33.05 137.14-32.45 136.29-32.45L136.29-32.45ZM158.44 0.2Q154.64 0.2 151.64-1.5 148.64-3.2 146.94-6.23 145.24-9.25 145.24-13.05L145.24-13.05Q145.24-16.9 146.94-19.93 148.64-22.95 151.64-24.63 154.64-26.3 158.44-26.3L158.44-26.3Q161.59-26.3 164.16-25.08 166.74-23.85 168.34-21.5L168.34-21.5 166.49-20.15Q165.09-22.1 163.01-23.08 160.94-24.05 158.44-24.05L158.44-24.05Q155.39-24.05 152.96-22.68 150.54-21.3 149.16-18.8 147.79-16.3 147.79-13.05L147.79-13.05Q147.79-9.8 149.16-7.3 150.54-4.8 152.96-3.43 155.39-2.05 158.44-2.05L158.44-2.05Q160.94-2.05 163.01-3.03 165.09-4 166.49-5.95L166.49-5.95 168.34-4.6Q166.74-2.25 164.16-1.03 161.59 0.2 158.44 0.2L158.44 0.2ZM185.59 0.2Q181.89 0.2 178.91-1.5 175.94-3.2 174.24-6.23 172.54-9.25 172.54-13.05L172.54-13.05Q172.54-16.85 174.24-19.88 175.94-22.9 178.91-24.6 181.89-26.3 185.59-26.3L185.59-26.3Q189.29-26.3 192.26-24.6 195.24-22.9 196.94-19.88 198.64-16.85 198.64-13.05L198.64-13.05Q198.64-9.25 196.94-6.23 195.24-3.2 192.26-1.5 189.29 0.2 185.59 0.2L185.59 0.2ZM185.59-2.05Q188.59-2.05 190.96-3.45 193.34-4.85 194.71-7.35 196.09-9.85 196.09-13.05L196.09-13.05Q196.09-16.25 194.71-18.75 193.34-21.25 190.96-22.65 188.59-24.05 185.59-24.05L185.59-24.05Q182.59-24.05 180.21-22.65 177.84-21.25 176.46-18.75 175.09-16.25 175.09-13.05L175.09-13.05Q175.09-9.85 176.46-7.35 177.84-4.85 180.21-3.45 182.59-2.05 185.59-2.05L185.59-2.05Z" opacity="1" transform="matrix(1,0,0,1,0,0)" fill="#ffffff" class="undefined-text-0" data-fill-palette-color="primary" id="text-0"></path></svg></g></svg></g></svg></g></svg></g><g></g></svg></g></svg></g></svg></g></svg></g><defs></defs></svg><rect width="375.07953" height="169.53396999999998" fill="none" stroke="none" visibility="hidden"></rect></g></svg></g></svg>